<mxfile host="app.diagrams.net" agent="Mozilla/5.0 (Windows NT 10.0; Win64; x64) AppleWebKit/537.36 (KHTML, like Gecko) Chrome/129.0.0.0 Safari/537.36" version="24.7.17">
  <diagram name="Page-1" id="5JLXUbYmW5buYKQrY5wX">
    <mxGraphModel dx="794" dy="493" grid="1" gridSize="10" guides="1" tooltips="1" connect="1" arrows="1" fold="1" page="1" pageScale="1" pageWidth="850" pageHeight="1100" math="0" shadow="0">
      <root>
        <mxCell id="0" />
        <mxCell id="1" parent="0" />
        <mxCell id="4Gl687OiZUHn3Nq44_UY-1" value="Actor" style="shape=umlActor;verticalLabelPosition=bottom;verticalAlign=top;html=1;outlineConnect=0;" vertex="1" parent="1">
          <mxGeometry x="110" y="120" width="60" height="120" as="geometry" />
        </mxCell>
        <mxCell id="4Gl687OiZUHn3Nq44_UY-2" value="" style="swimlane;startSize=0;" vertex="1" parent="1">
          <mxGeometry x="240" y="40" width="280" height="360" as="geometry" />
        </mxCell>
        <mxCell id="4Gl687OiZUHn3Nq44_UY-4" value="" style="ellipse;whiteSpace=wrap;html=1;" vertex="1" parent="4Gl687OiZUHn3Nq44_UY-2">
          <mxGeometry x="40" y="10" width="200" height="100" as="geometry" />
        </mxCell>
        <mxCell id="4Gl687OiZUHn3Nq44_UY-3" value="" style="endArrow=none;html=1;rounded=0;entryX=-0.007;entryY=0.392;entryDx=0;entryDy=0;entryPerimeter=0;" edge="1" parent="1" source="4Gl687OiZUHn3Nq44_UY-1" target="4Gl687OiZUHn3Nq44_UY-2">
          <mxGeometry width="50" height="50" relative="1" as="geometry">
            <mxPoint x="380" y="280" as="sourcePoint" />
            <mxPoint x="430" y="230" as="targetPoint" />
          </mxGeometry>
        </mxCell>
      </root>
    </mxGraphModel>
  </diagram>
</mxfile>
